STARTFONT 2.1
FONT -Monotype-Arial Narrow-Bold-I-Normal--19-140-100-100-P-87-iso8859-9
SIZE 14 100 100
FONTBOUNDINGBOX 20 22 -3 -4

STARTPROPERTIES 24
FOUNDRY "Monotype"
FAMILY_NAME "Arial Narrow"
WEIGHT_NAME "Bold"
SLANT "I"
SETWIDTH_NAME "Normal"
ADD_STYLE_NAME ""
PIXEL_SIZE 19
POINT_SIZE 140
RESOLUTION_X 100
RESOLUTION_Y 100
SPACING "P"
AVERAGE_WIDTH 87
CHARSET_REGISTRY "iso8859"
CHARSET_ENCODING "9"
FACE_NAME "Arial Narrow Bold Italic ISO Latin5"
_DEC_DEVICE_FONTNAMES "PS=arialnarrow-bit-lat5"
COPYRIGHT "Copyright (c) 1994 Monotype Typography Ltd."
CAP_HEIGHT 15
X_HEIGHT 11
WEIGHT 10
QUAD_WIDTH 10
DEFAULT_CHAR 160
FONT_DESCENT 4
FONT_ASCENT 18
ENDPROPERTIES

CHARS 191

STARTCHAR space
ENCODING 32
SWIDTH 228 0
DWIDTH 4 0
BBX 0 0 0 0
BITMAP
ENDCHAR

STARTCHAR exclam
ENCODING 33
SWIDTH 273 0
DWIDTH 5 0
BBX 6 14 0 0
BITMAP
1C
1C
1C
38
38
38
38
70
70
70
00
E0
E0
E0
ENDCHAR

STARTCHAR quotedbl
ENCODING 34
SWIDTH 389 0
DWIDTH 7 0
BBX 6 5 1 9
BITMAP
6C
6C
D8
D8
D8
ENDCHAR

STARTCHAR numbersign
ENCODING 35
SWIDTH 456 0
DWIDTH 9 0
BBX 9 14 0 0
BITMAP
1B00
1B00
1B00
3600
FF80
FF80
3600
3600
FF80
FF80
6C00
6C00
6C00
6C00
ENDCHAR

STARTCHAR dollar
ENCODING 36
SWIDTH 456 0
DWIDTH 9 0
BBX 8 17 1 -2
BITMAP
04
1E
3F
6B
6B
68
78
3C
1C
16
16
D6
D6
FC
78
20
20
ENDCHAR

STARTCHAR percent
ENCODING 37
SWIDTH 729 0
DWIDTH 14 0
BBX 12 15 1 -1
BITMAP
3060
7860
D8C0
D980
D980
F300
6600
0600
0C60
0CF0
19B0
19B0
31B0
61E0
60C0
ENDCHAR

STARTCHAR ampersand
ENCODING 38
SWIDTH 592 0
DWIDTH 11 0
BBX 10 14 1 0
BITMAP
0E00
1F00
3300
3300
3600
1E00
3800
7C00
EDC0
EF80
E700
E780
FF80
7D80
ENDCHAR

STARTCHAR quoteright
ENCODING 39
SWIDTH 228 0
DWIDTH 4 0
BBX 4 6 0 8
BITMAP
70
70
70
30
60
C0
ENDCHAR

STARTCHAR parenleft
ENCODING 40
SWIDTH 273 0
DWIDTH 5 0
BBX 7 18 0 -4
BITMAP
06
0C
18
18
38
30
70
70
60
E0
E0
E0
E0
E0
60
60
30
30
ENDCHAR

STARTCHAR parenright
ENCODING 41
SWIDTH 273 0
DWIDTH 5 0
BBX 7 18 -2 -4
BITMAP
18
18
1C
0C
0E
0E
0E
0E
0E
0E
0C
1C
18
38
30
30
60
C0
ENDCHAR

STARTCHAR asterisk
ENCODING 42
SWIDTH 319 0
DWIDTH 6 0
BBX 5 7 2 7
BITMAP
20
20
B8
F8
70
D0
50
ENDCHAR

STARTCHAR plus
ENCODING 43
SWIDTH 479 0
DWIDTH 9 0
BBX 8 10 1 2
BITMAP
18
18
18
18
FF
FF
18
18
18
18
ENDCHAR

STARTCHAR comma
ENCODING 44
SWIDTH 228 0
DWIDTH 4 0
BBX 4 6 -1 -3
BITMAP
70
70
70
30
60
C0
ENDCHAR

STARTCHAR minus
ENCODING 45
SWIDTH 479 0
DWIDTH 9 0
BBX 8 2 1 6
BITMAP
FF
FF
ENDCHAR

STARTCHAR period
ENCODING 46
SWIDTH 228 0
DWIDTH 4 0
BBX 3 3 0 0
BITMAP
E0
E0
E0
ENDCHAR

STARTCHAR slash
ENCODING 47
SWIDTH 228 0
DWIDTH 4 0
BBX 4 15 0 -1
BITMAP
30
30
30
30
30
60
60
60
60
60
C0
C0
C0
C0
C0
ENDCHAR

STARTCHAR zero
ENCODING 48
SWIDTH 456 0
DWIDTH 9 0
BBX 8 14 1 0
BITMAP
1E
3F
37
77
67
E7
E7
E7
E7
E6
EE
EC
FC
78
ENDCHAR

STARTCHAR one
ENCODING 49
SWIDTH 456 0
DWIDTH 9 0
BBX 7 14 1 0
BITMAP
0E
1E
3E
6E
CE
9C
1C
1C
1C
1C
38
38
38
38
ENDCHAR

STARTCHAR two
ENCODING 50
SWIDTH 456 0
DWIDTH 9 0
BBX 8 14 1 0
BITMAP
1E
3F
77
77
07
07
0E
0E
1C
38
70
E0
FE
FE
ENDCHAR

STARTCHAR three
ENCODING 51
SWIDTH 456 0
DWIDTH 9 0
BBX 9 14 0 0
BITMAP
0F00
1F80
3B80
3B80
0380
0380
0700
0E00
0F00
0700
E700
E700
7E00
3C00
ENDCHAR

STARTCHAR four
ENCODING 52
SWIDTH 456 0
DWIDTH 9 0
BBX 9 14 0 0
BITMAP
0380
0780
0780
0F80
1F80
3B00
3700
7700
E700
FF80
FF80
0E00
0E00
0E00
ENDCHAR

STARTCHAR five
ENCODING 53
SWIDTH 456 0
DWIDTH 9 0
BBX 9 14 0 0
BITMAP
1F80
1F80
1C00
1C00
3800
3E00
3F00
3700
0700
0700
E700
EE00
7C00
3800
ENDCHAR

STARTCHAR six
ENCODING 54
SWIDTH 456 0
DWIDTH 9 0
BBX 9 14 1 0
BITMAP
0F00
3F80
3B80
7000
6E00
FF00
F300
E300
E700
E700
C600
CE00
FC00
7800
ENDCHAR

STARTCHAR seven
ENCODING 55
SWIDTH 456 0
DWIDTH 9 0
BBX 8 14 1 0
BITMAP
7F
7F
07
06
0E
0C
1C
38
38
70
70
E0
E0
E0
ENDCHAR

STARTCHAR eight
ENCODING 56
SWIDTH 456 0
DWIDTH 9 0
BBX 8 14 1 0
BITMAP
1E
3F
77
63
76
3C
7E
E6
E6
CE
CE
CE
FC
78
ENDCHAR

STARTCHAR nine
ENCODING 57
SWIDTH 456 0
DWIDTH 9 0
BBX 9 14 0 0
BITMAP
0F00
1F80
3980
3180
7380
7380
6380
6780
7F80
3B00
0700
EE00
FE00
7800
ENDCHAR

STARTCHAR colon
ENCODING 58
SWIDTH 273 0
DWIDTH 5 0
BBX 5 10 0 0
BITMAP
38
38
38
00
00
00
00
E0
E0
E0
ENDCHAR

STARTCHAR semicolon
ENCODING 59
SWIDTH 273 0
DWIDTH 5 0
BBX 6 13 -1 -3
BITMAP
1C
1C
1C
00
00
00
00
70
70
70
30
60
C0
ENDCHAR

STARTCHAR less
ENCODING 60
SWIDTH 479 0
DWIDTH 9 0
BBX 7 10 1 2
BITMAP
02
06
1E
78
E0
E0
78
1E
06
02
ENDCHAR

STARTCHAR equal
ENCODING 61
SWIDTH 479 0
DWIDTH 9 0
BBX 8 6 1 4
BITMAP
FF
FF
00
00
FF
FF
ENDCHAR

STARTCHAR greater
ENCODING 62
SWIDTH 479 0
DWIDTH 9 0
BBX 7 10 1 2
BITMAP
80
C0
F0
3C
0E
0E
3C
F0
C0
80
ENDCHAR

STARTCHAR question
ENCODING 63
SWIDTH 501 0
DWIDTH 10 0
BBX 7 14 2 0
BITMAP
3C
7E
EE
C6
0E
0C
1C
38
70
60
00
C0
C0
C0
ENDCHAR

STARTCHAR at
ENCODING 64
SWIDTH 800 0
DWIDTH 15 0
BBX 15 18 0 -4
BITMAP
07C0
1FF0
3838
3008
636C
4FE4
CCE4
D864
9844
98CC
98CC
D8D8
CFF0
46E0
600E
381C
1FF8
07E0
ENDCHAR

STARTCHAR A
ENCODING 65
SWIDTH 592 0
DWIDTH 11 0
BBX 10 14 0 0
BITMAP
0380
0780
0780
0FC0
0FC0
1DC0
1DC0
39C0
39C0
7FC0
7FC0
71C0
E1C0
E1C0
ENDCHAR

STARTCHAR B
ENCODING 66
SWIDTH 592 0
DWIDTH 11 0
BBX 11 14 0 0
BITMAP
1FC0
1FE0
1CE0
1CE0
38E0
39C0
3FC0
7F80
71C0
71C0
E1C0
E3C0
FF80
FF00
ENDCHAR

STARTCHAR C
ENCODING 67
SWIDTH 592 0
DWIDTH 11 0
BBX 11 14 1 0
BITMAP
0F80
1FC0
3CE0
38E0
7000
7000
E000
E000
E000
E1C0
E1C0
E380
7F00
3E00
ENDCHAR

STARTCHAR D
ENCODING 68
SWIDTH 592 0
DWIDTH 11 0
BBX 11 14 0 0
BITMAP
1F80
1FC0
1CE0
38E0
38E0
38E0
38E0
70E0
71C0
71C0
E380
E780
FF00
FE00
ENDCHAR

STARTCHAR E
ENCODING 69
SWIDTH 547 0
DWIDTH 10 0
BBX 11 14 0 0
BITMAP
1FE0
1FE0
1C00
3800
3800
3800
7FC0
7FC0
7000
7000
E000
E000
FF80
FF80
ENDCHAR

STARTCHAR F
ENCODING 70
SWIDTH 501 0
DWIDTH 9 0
BBX 10 14 0 0
BITMAP
1FC0
1FC0
1C00
3800
3800
3800
3F80
7F80
7000
7000
E000
E000
E000
E000
ENDCHAR

STARTCHAR G
ENCODING 71
SWIDTH 638 0
DWIDTH 12 0
BBX 11 14 1 0
BITMAP
0780
1FC0
3CE0
38E0
7000
7000
E000
E7C0
E7C0
E1C0
E1C0
E380
7F80
3F00
ENDCHAR

STARTCHAR H
ENCODING 72
SWIDTH 592 0
DWIDTH 11 0
BBX 12 14 0 0
BITMAP
1C70
1C70
1C70
38E0
38E0
38E0
3FE0
7FC0
71C0
71C0
E380
E380
E380
E380
ENDCHAR

STARTCHAR I
ENCODING 73
SWIDTH 228 0
DWIDTH 5 0
BBX 6 14 0 0
BITMAP
1C
1C
1C
38
38
38
38
70
70
70
E0
E0
E0
E0
ENDCHAR

STARTCHAR J
ENCODING 74
SWIDTH 456 0
DWIDTH 9 0
BBX 11 14 -1 0
BITMAP
00E0
00E0
00E0
01C0
01C0
01C0
01C0
0380
0380
0380
E700
E700
FF00
7E00
ENDCHAR

STARTCHAR K
ENCODING 75
SWIDTH 592 0
DWIDTH 11 0
BBX 13 14 0 0
BITMAP
1C38
1C70
1CE0
39C0
3B80
3F00
7E00
7E00
7F00
7780
E380
E1C0
E1C0
E0E0
ENDCHAR

STARTCHAR L
ENCODING 76
SWIDTH 501 0
DWIDTH 10 0
BBX 9 14 0 0
BITMAP
1C00
1C00
1C00
3800
3800
3800
3800
7000
7000
7000
E000
E000
FF80
FF80
ENDCHAR

STARTCHAR M
ENCODING 77
SWIDTH 683 0
DWIDTH 13 0
BBX 14 14 0 0
BITMAP
1C3C
1C3C
1C7C
3E78
36F8
36D8
36D8
67B0
67B0
6730
6730
C760
C660
C660
ENDCHAR

STARTCHAR N
ENCODING 78
SWIDTH 592 0
DWIDTH 11 0
BBX 12 14 0 0
BITMAP
1C30
1C30
1E30
3E60
3E60
3F60
3760
67C0
67C0
67C0
63C0
C380
C380
C380
ENDCHAR

STARTCHAR O
ENCODING 79
SWIDTH 638 0
DWIDTH 12 0
BBX 11 14 1 0
BITMAP
0780
1FC0
3CE0
38E0
70E0
70E0
E0E0
E0E0
E1C0
E1C0
E380
E780
7F00
3C00
ENDCHAR

STARTCHAR P
ENCODING 80
SWIDTH 547 0
DWIDTH 10 0
BBX 11 14 0 0
BITMAP
1FC0
1FE0
1CE0
38E0
38E0
39C0
3FC0
7F00
7000
7000
E000
E000
E000
E000
ENDCHAR

STARTCHAR Q
ENCODING 81
SWIDTH 638 0
DWIDTH 12 0
BBX 11 15 1 -1
BITMAP
0780
1FC0
3CE0
38E0
70E0
70E0
E0E0
E0E0
E1C0
E1C0
ED80
E780
7F80
3DC0
00C0
ENDCHAR

STARTCHAR R
ENCODING 82
SWIDTH 592 0
DWIDTH 11 0
BBX 12 14 0 0
BITMAP
1FE0
1FF0
1C70
3870
3870
38E0
3FC0
7F80
7700
7700
E380
E380
E1C0
E1C0
ENDCHAR

STARTCHAR S
ENCODING 83
SWIDTH 547 0
DWIDTH 10 0
BBX 9 14 1 0
BITMAP
1E00
3F00
7380
7380
7000
7800
3C00
1E00
0F00
0700
E700
E700
7E00
3C00
ENDCHAR

STARTCHAR T
ENCODING 84
SWIDTH 501 0
DWIDTH 10 0
BBX 10 14 2 0
BITMAP
FFC0
FFC0
0E00
0E00
1C00
1C00
1C00
3800
3800
3800
3800
7000
7000
7000
ENDCHAR

STARTCHAR U
ENCODING 85
SWIDTH 592 0
DWIDTH 11 0
BBX 12 14 0 0
BITMAP
1C70
1C70
1C70
38E0
38E0
38E0
39C0
71C0
71C0
7380
E380
E700
FF00
7E00
ENDCHAR

STARTCHAR V
ENCODING 86
SWIDTH 547 0
DWIDTH 10 0
BBX 10 14 2 0
BITMAP
E1C0
E1C0
E180
E380
E380
E300
E700
7700
7600
7E00
7C00
7C00
7800
7800
ENDCHAR

STARTCHAR W
ENCODING 87
SWIDTH 774 0
DWIDTH 15 0
BBX 15 14 2 0
BITMAP
E38E
E38E
E78C
E79C
ED9C
ED98
F9B8
F9B8
F9B0
F1F0
F1E0
E1E0
E1C0
E1C0
ENDCHAR

STARTCHAR X
ENCODING 88
SWIDTH 547 0
DWIDTH 10 0
BBX 10 14 0 0
BITMAP
71C0
71C0
3980
3B80
3B00
1E00
1E00
1C00
3E00
3E00
7700
6700
E380
E380
ENDCHAR

STARTCHAR Y
ENCODING 89
SWIDTH 547 0
DWIDTH 10 0
BBX 10 14 2 0
BITMAP
E1C0
E1C0
6380
7380
7700
3700
3E00
3E00
1C00
1C00
1C00
3800
3800
3800
ENDCHAR

STARTCHAR Z
ENCODING 90
SWIDTH 501 0
DWIDTH 10 0
BBX 9 14 1 0
BITMAP
7F80
7F80
0380
0700
0700
0E00
1C00
1C00
3800
7000
7000
E000
FF00
FF00
ENDCHAR

STARTCHAR bracketleft
ENCODING 91
SWIDTH 273 0
DWIDTH 5 0
BBX 9 18 -2 -4
BITMAP
0F80
0F80
0E00
0E00
1C00
1C00
1C00
1C00
3800
3800
3800
7000
7000
7000
7000
E000
FC00
FC00
ENDCHAR

STARTCHAR backslash
ENCODING 92
SWIDTH 228 0
DWIDTH 4 0
BBX 4 15 0 -1
BITMAP
C0
C0
C0
C0
C0
60
60
60
60
60
30
30
30
30
30
ENDCHAR

STARTCHAR bracketright
ENCODING 93
SWIDTH 273 0
DWIDTH 5 0
BBX 9 18 -3 -4
BITMAP
0F80
0F80
0380
0700
0700
0700
0700
0E00
0E00
0E00
0E00
1C00
1C00
1C00
1C00
3800
F800
F800
ENDCHAR

STARTCHAR asciicircum
ENCODING 94
SWIDTH 479 0
DWIDTH 9 0
BBX 7 8 1 6
BITMAP
18
38
38
6C
6C
6C
C6
C6
ENDCHAR

STARTCHAR underscore
ENCODING 95
SWIDTH 456 0
DWIDTH 9 0
BBX 10 2 -1 -3
BITMAP
FFC0
FFC0
ENDCHAR

STARTCHAR quoteleft
ENCODING 96
SWIDTH 228 0
DWIDTH 4 0
BBX 4 6 1 8
BITMAP
30
60
C0
E0
E0
E0
ENDCHAR

STARTCHAR a
ENCODING 97
SWIDTH 456 0
DWIDTH 9 0
BBX 9 10 0 0
BITMAP
1F00
3F80
3380
0380
3F00
7F00
E700
E700
FF00
7B00
ENDCHAR

STARTCHAR b
ENCODING 98
SWIDTH 501 0
DWIDTH 10 0
BBX 10 14 0 0
BITMAP
1C00
1C00
1C00
3800
3B80
3FC0
39C0
71C0
71C0
7380
E380
E700
FF00
DC00
ENDCHAR

STARTCHAR c
ENCODING 99
SWIDTH 456 0
DWIDTH 9 0
BBX 9 10 0 0
BITMAP
0F00
3F80
3980
7000
7000
E000
E300
E700
FE00
7C00
ENDCHAR

STARTCHAR d
ENCODING 100
SWIDTH 501 0
DWIDTH 10 0
BBX 11 14 0 0
BITMAP
00E0
00E0
00E0
01C0
0FC0
3FC0
39C0
7380
7380
E380
E700
E700
FF00
7B00
ENDCHAR

STARTCHAR e
ENCODING 101
SWIDTH 456 0
DWIDTH 9 0
BBX 9 10 0 0
BITMAP
1E00
3F00
7380
7380
FF80
FF80
E000
E700
FE00
7C00
ENDCHAR

STARTCHAR f
ENCODING 102
SWIDTH 273 0
DWIDTH 5 0
BBX 8 14 0 0
BITMAP
0F
1F
1C
1C
7E
7E
38
38
70
70
70
E0
E0
E0
ENDCHAR

STARTCHAR g
ENCODING 103
SWIDTH 501 0
DWIDTH 10 0
BBX 11 14 -1 -4
BITMAP
0760
1FE0
1CE0
39C0
39C0
71C0
71C0
7380
7F80
3B80
0380
E700
7F00
3E00
ENDCHAR

STARTCHAR h
ENCODING 104
SWIDTH 501 0
DWIDTH 10 0
BBX 10 14 0 0
BITMAP
1C00
1C00
1C00
3800
3B80
3FC0
39C0
71C0
7380
7380
7380
E700
E700
E700
ENDCHAR

STARTCHAR i
ENCODING 105
SWIDTH 228 0
DWIDTH 5 0
BBX 6 14 0 0
BITMAP
1C
1C
1C
00
38
38
38
70
70
70
60
E0
E0
E0
ENDCHAR

STARTCHAR j
ENCODING 106
SWIDTH 228 0
DWIDTH 5 0
BBX 9 18 -3 -4
BITMAP
0380
0380
0380
0000
0700
0700
0700
0E00
0E00
0E00
0E00
1C00
1C00
1C00
1C00
3800
F800
F000
ENDCHAR

STARTCHAR k
ENCODING 107
SWIDTH 456 0
DWIDTH 9 0
BBX 10 14 0 0
BITMAP
1C00
1C00
1C00
3800
39C0
3B80
7700
7E00
7C00
7E00
7600
E700
E300
E380
ENDCHAR

STARTCHAR l
ENCODING 108
SWIDTH 228 0
DWIDTH 5 0
BBX 6 14 0 0
BITMAP
1C
1C
1C
1C
38
38
38
70
70
70
70
E0
E0
E0
ENDCHAR

STARTCHAR m
ENCODING 109
SWIDTH 729 0
DWIDTH 13 0
BBX 13 10 0 0
BITMAP
3770
3FF8
3BB8
73B8
7770
7770
6670
EEE0
EEE0
EEE0
ENDCHAR

STARTCHAR n
ENCODING 110
SWIDTH 501 0
DWIDTH 10 0
BBX 10 10 0 0
BITMAP
3780
3FC0
39C0
71C0
7380
7380
7380
E700
E700
E700
ENDCHAR

STARTCHAR o
ENCODING 111
SWIDTH 501 0
DWIDTH 10 0
BBX 10 10 0 0
BITMAP
0F80
3FC0
39C0
71C0
71C0
E380
E380
E700
FF00
7C00
ENDCHAR

STARTCHAR p
ENCODING 112
SWIDTH 501 0
DWIDTH 10 0
BBX 11 14 -1 -4
BITMAP
1DC0
1FE0
1CE0
38E0
38E0
39C0
39C0
7380
7F80
7E00
7000
E000
E000
E000
ENDCHAR

STARTCHAR q
ENCODING 113
SWIDTH 501 0
DWIDTH 10 0
BBX 10 14 0 -4
BITMAP
0EC0
3FC0
39C0
7380
7380
E380
E780
E700
FF00
7700
0700
0E00
0E00
0E00
ENDCHAR

STARTCHAR r
ENCODING 114
SWIDTH 319 0
DWIDTH 6 0
BBX 7 10 0 0
BITMAP
36
3E
38
38
70
70
70
E0
E0
E0
ENDCHAR

STARTCHAR s
ENCODING 115
SWIDTH 456 0
DWIDTH 8 0
BBX 8 10 0 0
BITMAP
1E
3F
73
70
7C
3E
0E
CE
FC
78
ENDCHAR

STARTCHAR t
ENCODING 116
SWIDTH 273 0
DWIDTH 5 0
BBX 7 14 0 0
BITMAP
0C
1C
1C
38
FE
FE
38
70
70
70
E0
E0
F8
78
ENDCHAR

STARTCHAR u
ENCODING 117
SWIDTH 501 0
DWIDTH 10 0
BBX 10 10 0 0
BITMAP
39C0
39C0
39C0
7380
7380
7380
E380
E700
FF00
7B00
ENDCHAR

STARTCHAR v
ENCODING 118
SWIDTH 456 0
DWIDTH 8 0
BBX 8 10 1 0
BITMAP
E3
E7
E6
EE
EC
FC
F8
F8
F0
F0
ENDCHAR

STARTCHAR w
ENCODING 119
SWIDTH 638 0
DWIDTH 12 0
BBX 12 10 1 0
BITMAP
E670
E660
EEE0
EEC0
FFC0
FF80
F780
F700
E700
E700
ENDCHAR

STARTCHAR x
ENCODING 120
SWIDTH 456 0
DWIDTH 9 0
BBX 11 10 -1 0
BITMAP
38E0
39C0
1B80
1F00
0E00
0E00
1F00
3B00
7380
E380
ENDCHAR

STARTCHAR y
ENCODING 121
SWIDTH 456 0
DWIDTH 9 0
BBX 10 14 0 -4
BITMAP
71C0
71C0
7380
7380
3700
3700
3F00
3E00
1E00
1C00
1C00
3800
F800
F000
ENDCHAR

STARTCHAR z
ENCODING 122
SWIDTH 410 0
DWIDTH 8 0
BBX 8 10 0 0
BITMAP
3F
3F
07
0E
1C
38
70
E0
FE
FE
ENDCHAR

STARTCHAR braceleft
ENCODING 123
SWIDTH 319 0
DWIDTH 6 0
BBX 6 18 1 -4
BITMAP
0C
18
18
38
38
30
30
60
C0
60
60
60
E0
E0
C0
C0
C0
60
ENDCHAR

STARTCHAR bar
ENCODING 124
SWIDTH 230 0
DWIDTH 4 0
BBX 2 18 1 -4
BITMAP
C0
C0
C0
C0
C0
C0
C0
C0
C0
C0
C0
C0
C0
C0
C0
C0
C0
C0
ENDCHAR

STARTCHAR braceright
ENCODING 125
SWIDTH 319 0
DWIDTH 6 0
BBX 6 18 -1 -4
BITMAP
18
0C
0C
0C
1C
1C
18
18
18
0C
18
30
30
70
70
60
60
C0
ENDCHAR

STARTCHAR asciitilde
ENCODING 126
SWIDTH 479 0
DWIDTH 9 0
BBX 8 3 1 5
BITMAP
71
FF
8E
ENDCHAR

STARTCHAR space
ENCODING 160
SWIDTH 228 0
DWIDTH 5 0
BBX 0 0 0 0
BITMAP
ENDCHAR

STARTCHAR exclamdown
ENCODING 161
SWIDTH 273 0
DWIDTH 5 0
BBX 4 14 1 -4
BITMAP
30
30
30
00
60
60
60
60
60
C0
C0
C0
C0
C0
ENDCHAR

STARTCHAR cent
ENCODING 162
SWIDTH 456 0
DWIDTH 9 0
BBX 8 17 1 -3
BITMAP
02
02
06
04
1E
7E
EF
C8
D8
D0
D6
EE
7C
38
60
40
40
ENDCHAR

STARTCHAR sterling
ENCODING 163
SWIDTH 456 0
DWIDTH 9 0
BBX 9 14 0 0
BITMAP
0F00
1F80
3980
3180
3000
3000
7C00
7C00
3000
3000
3000
6100
FF00
DE00
ENDCHAR

STARTCHAR currency
ENCODING 164
SWIDTH 456 0
DWIDTH 9 0
BBX 9 10 0 2
BITMAP
4100
FF80
7F00
7700
6300
6300
7700
7F00
FF80
4100
ENDCHAR

STARTCHAR yen
ENCODING 165
SWIDTH 456 0
DWIDTH 9 0
BBX 9 14 0 0
BITMAP
6180
6180
3300
3600
3600
1C00
7F00
FE00
1800
7F00
FE00
3000
3000
3000
ENDCHAR

STARTCHAR brokenbar
ENCODING 166
SWIDTH 230 0
DWIDTH 4 0
BBX 2 18 2 -4
BITMAP
C0
C0
C0
C0
C0
C0
C0
00
00
00
00
C0
C0
C0
C0
C0
C0
C0
ENDCHAR

STARTCHAR section
ENCODING 167
SWIDTH 456 0
DWIDTH 9 0
BBX 9 18 0 -4
BITMAP
0700
0F80
1D80
1800
0C00
1E00
3700
6380
6180
7180
3B80
1F00
0E00
0600
C600
EE00
7C00
3800
ENDCHAR

STARTCHAR dieresis
ENCODING 168
SWIDTH 273 0
DWIDTH 5 0
BBX 6 2 0 12
BITMAP
CC
CC
ENDCHAR

STARTCHAR copyright
ENCODING 169
SWIDTH 604 0
DWIDTH 11 0
BBX 11 14 0 0
BITMAP
1F00
3F80
60C0
6EC0
DF60
D960
D860
D860
D960
DF60
6EC0
60C0
3F80
1F00
ENDCHAR

STARTCHAR ordfeminine
ENCODING 170
SWIDTH 303 0
DWIDTH 6 0
BBX 6 7 0 7
BITMAP
38
7C
0C
78
D8
F8
E8
ENDCHAR

STARTCHAR guillemotleft
ENCODING 171
SWIDTH 456 0
DWIDTH 9 0
BBX 8 9 1 0
BITMAP
1B
36
6C
D8
D8
D8
6C
6C
6C
ENDCHAR

STARTCHAR logicalnot
ENCODING 172
SWIDTH 479 0
DWIDTH 9 0
BBX 8 6 1 4
BITMAP
FF
FF
03
03
03
03
ENDCHAR

STARTCHAR hyphen
ENCODING 173
SWIDTH 273 0
DWIDTH 5 0
BBX 4 2 1 10
BITMAP
F0
F0
ENDCHAR

STARTCHAR registered
ENCODING 174
SWIDTH 604 0
DWIDTH 11 0
BBX 11 14 0 0
BITMAP
1F00
3F80
60C0
7CC0
DE60
DB60
DB60
DE60
DF60
DB60
7BC0
60C0
3F80
1F00
ENDCHAR

STARTCHAR macron
ENCODING 175
SWIDTH 273 0
DWIDTH 5 0
BBX 5 2 0 11
BITMAP
F8
F8
ENDCHAR

STARTCHAR degree
ENCODING 176
SWIDTH 328 0
DWIDTH 6 0
BBX 5 6 1 8
BITMAP
70
F8
D8
D8
F8
70
ENDCHAR

STARTCHAR plusminus
ENCODING 177
SWIDTH 479 0
DWIDTH 9 0
BBX 8 13 1 1
BITMAP
18
18
18
18
FF
FF
18
18
18
18
00
FF
FF
ENDCHAR

STARTCHAR twosuperior
ENCODING 178
SWIDTH 273 0
DWIDTH 5 0
BBX 5 7 0 7
BITMAP
30
78
18
30
60
F0
F0
ENDCHAR

STARTCHAR threesuperior
ENCODING 179
SWIDTH 273 0
DWIDTH 5 0
BBX 4 7 1 7
BITMAP
70
F0
30
60
30
E0
C0
ENDCHAR

STARTCHAR acute
ENCODING 180
SWIDTH 273 0
DWIDTH 5 0
BBX 4 3 1 11
BITMAP
30
60
C0
ENDCHAR

STARTCHAR mu
ENCODING 181
SWIDTH 501 0
DWIDTH 10 0
BBX 9 14 1 -4
BITMAP
3180
3180
3180
3180
3180
6300
6300
7300
7F00
ED00
C000
C000
C000
C000
ENDCHAR

STARTCHAR paragraph
ENCODING 182
SWIDTH 456 0
DWIDTH 9 0
BBX 9 17 0 -3
BITMAP
3F80
7F80
FB00
FB00
FB00
FB00
7B00
1B00
1B00
1B00
1B00
1B00
1B00
1B00
1B00
1B00
1B00
ENDCHAR

STARTCHAR periodcentered
ENCODING 183
SWIDTH 228 0
DWIDTH 4 0
BBX 2 3 1 5
BITMAP
C0
C0
C0
ENDCHAR

STARTCHAR cedilla
ENCODING 184
SWIDTH 273 0
DWIDTH 5 0
BBX 5 4 0 -4
BITMAP
70
18
38
F0
ENDCHAR

STARTCHAR onesuperior
ENCODING 185
SWIDTH 273 0
DWIDTH 5 0
BBX 3 7 1 7
BITMAP
60
E0
60
60
C0
C0
C0
ENDCHAR

STARTCHAR ordmasculine
ENCODING 186
SWIDTH 299 0
DWIDTH 6 0
BBX 6 7 0 7
BITMAP
18
3C
6C
CC
D8
F0
60
ENDCHAR

STARTCHAR guillemotright
ENCODING 187
SWIDTH 456 0
DWIDTH 9 0
BBX 8 9 1 0
BITMAP
36
36
36
1B
1B
1B
36
6C
D8
ENDCHAR

STARTCHAR onequarter
ENCODING 188
SWIDTH 684 0
DWIDTH 13 0
BBX 11 15 1 -1
BITMAP
6060
E0C0
60C0
6180
C300
C300
C600
0C00
0CC0
19C0
32C0
36C0
67E0
67E0
C0C0
ENDCHAR

STARTCHAR onehalf
ENCODING 189
SWIDTH 684 0
DWIDTH 13 0
BBX 11 15 1 -1
BITMAP
6060
E0C0
60C0
6180
C300
C300
C600
0C00
0CC0
19E0
3060
30C0
6180
63C0
C3C0
ENDCHAR

STARTCHAR threequarters
ENCODING 190
SWIDTH 684 0
DWIDTH 13 0
BBX 11 15 1 -1
BITMAP
7060
F0C0
30C0
6180
3300
E300
C600
0C00
0CC0
19C0
32C0
36C0
67E0
67E0
C0C0
ENDCHAR

STARTCHAR questiondown
ENCODING 191
SWIDTH 501 0
DWIDTH 10 0
BBX 7 14 2 -4
BITMAP
06
06
06
00
0C
1C
38
70
60
E0
C6
EE
FC
78
ENDCHAR

STARTCHAR Agrave
ENCODING 192
SWIDTH 592 0
DWIDTH 11 0
BBX 10 18 0 0
BITMAP
0600
0300
0180
0000
0380
0780
0780
0FC0
0FC0
1DC0
1DC0
39C0
39C0
7FC0
7FC0
71C0
E1C0
E1C0
ENDCHAR

STARTCHAR Aacute
ENCODING 193
SWIDTH 592 0
DWIDTH 11 0
BBX 10 18 0 0
BITMAP
00C0
0180
0300
0000
0380
0780
0780
0FC0
0FC0
1DC0
1DC0
39C0
39C0
7FC0
7FC0
71C0
E1C0
E1C0
ENDCHAR

STARTCHAR Acircumflex
ENCODING 194
SWIDTH 592 0
DWIDTH 11 0
BBX 11 18 0 0
BITMAP
0180
03C0
0660
0000
0380
0780
0780
0FC0
0FC0
1DC0
1DC0
39C0
39C0
7FC0
7FC0
71C0
E1C0
E1C0
ENDCHAR

STARTCHAR Atilde
ENCODING 195
SWIDTH 592 0
DWIDTH 11 0
BBX 11 18 0 0
BITMAP
0320
07E0
04C0
0000
0380
0780
0780
0FC0
0FC0
1DC0
1DC0
39C0
39C0
7FC0
7FC0
71C0
E1C0
E1C0
ENDCHAR

STARTCHAR Adieresis
ENCODING 196
SWIDTH 592 0
DWIDTH 11 0
BBX 11 17 0 0
BITMAP
0360
0360
0000
0380
0780
0780
0FC0
0FC0
1DC0
1DC0
39C0
39C0
7FC0
7FC0
71C0
E1C0
E1C0
ENDCHAR

STARTCHAR Aring
ENCODING 197
SWIDTH 592 0
DWIDTH 11 0
BBX 11 18 0 0
BITMAP
03C0
0660
0660
06C0
0380
0780
0780
0FC0
0FC0
1DC0
1DC0
39C0
39C0
7FC0
7FC0
71C0
E1C0
E1C0
ENDCHAR

STARTCHAR AE
ENCODING 198
SWIDTH 820 0
DWIDTH 16 0
BBX 17 14 0 0
BITMAP
03FF80
07FF80
077000
0E7000
0EE000
1CE000
1CFF00
39FF00
3FC000
3FC000
71C000
738000
E3FE00
E3FE00
ENDCHAR

STARTCHAR Ccedilla
ENCODING 199
SWIDTH 592 0
DWIDTH 11 0
BBX 11 18 1 -4
BITMAP
0F80
1FC0
3CE0
38E0
7000
7000
E000
E000
E000
E1C0
E1C0
E380
7F00
3E00
1800
0C00
0C00
3800
ENDCHAR

STARTCHAR Egrave
ENCODING 200
SWIDTH 547 0
DWIDTH 10 0
BBX 11 18 0 0
BITMAP
0C00
0600
0300
0000
1FE0
1FE0
1C00
3800
3800
3800
7FC0
7FC0
7000
7000
E000
E000
FF80
FF80
ENDCHAR

STARTCHAR Eacute
ENCODING 201
SWIDTH 547 0
DWIDTH 10 0
BBX 11 18 0 0
BITMAP
00C0
0180
0300
0000
1FE0
1FE0
1C00
3800
3800
3800
7FC0
7FC0
7000
7000
E000
E000
FF80
FF80
ENDCHAR

STARTCHAR Ecircumflex
ENCODING 202
SWIDTH 547 0
DWIDTH 10 0
BBX 11 18 0 0
BITMAP
0180
03C0
0660
0000
1FE0
1FE0
1C00
3800
3800
3800
7FC0
7FC0
7000
7000
E000
E000
FF80
FF80
ENDCHAR

STARTCHAR Edieresis
ENCODING 203
SWIDTH 547 0
DWIDTH 10 0
BBX 11 17 0 0
BITMAP
06C0
06C0
0000
1FE0
1FE0
1C00
3800
3800
3800
7FC0
7FC0
7000
7000
E000
E000
FF80
FF80
ENDCHAR

STARTCHAR Igrave
ENCODING 204
SWIDTH 228 0
DWIDTH 5 0
BBX 6 18 0 0
BITMAP
30
18
0C
00
1C
1C
1C
38
38
38
38
70
70
70
E0
E0
E0
E0
ENDCHAR

STARTCHAR Iacute
ENCODING 205
SWIDTH 228 0
DWIDTH 5 0
BBX 7 18 0 0
BITMAP
06
0C
18
00
1C
1C
1C
38
38
38
38
70
70
70
E0
E0
E0
E0
ENDCHAR

STARTCHAR Icircumflex
ENCODING 206
SWIDTH 228 0
DWIDTH 5 0
BBX 8 18 0 0
BITMAP
04
0E
1B
00
1C
1C
1C
38
38
38
38
70
70
70
E0
E0
E0
E0
ENDCHAR

STARTCHAR Idieresis
ENCODING 207
SWIDTH 228 0
DWIDTH 5 0
BBX 8 18 0 0
BITMAP
33
33
00
00
1C
1C
1C
38
38
38
38
70
70
70
E0
E0
E0
E0
ENDCHAR

STARTCHAR Gbreve
ENCODING 208
SWIDTH 638 0
DWIDTH 12 0
BBX 12 18 1 0
BITMAP
0630
07F0
03E0
0000
0780
1FC0
3CE0
38E0
7000
7000
E000
E7C0
E7C0
E1C0
E1C0
E380
7F80
3F00
ENDCHAR

STARTCHAR Ntilde
ENCODING 209
SWIDTH 592 0
DWIDTH 11 0
BBX 12 18 0 0
BITMAP
0190
03F0
0260
0000
1C30
1C30
1E30
3E60
3E60
3F60
3760
67C0
67C0
67C0
63C0
C380
C380
C380
ENDCHAR

STARTCHAR Ograve
ENCODING 210
SWIDTH 638 0
DWIDTH 12 0
BBX 11 18 1 0
BITMAP
0C00
0600
0300
0000
0780
1FC0
3CE0
38E0
70E0
70E0
E0E0
E0E0
E1C0
E1C0
E380
E780
7F00
3C00
ENDCHAR

STARTCHAR Oacute
ENCODING 211
SWIDTH 638 0
DWIDTH 12 0
BBX 11 18 1 0
BITMAP
00C0
0180
0300
0000
0780
1FC0
3CE0
38E0
70E0
70E0
E0E0
E0E0
E1C0
E1C0
E380
E780
7F00
3C00
ENDCHAR

STARTCHAR Ocircumflex
ENCODING 212
SWIDTH 638 0
DWIDTH 12 0
BBX 11 18 1 0
BITMAP
0180
03C0
0660
0000
0780
1FC0
3CE0
38E0
70E0
70E0
E0E0
E0E0
E1C0
E1C0
E380
E780
7F00
3C00
ENDCHAR

STARTCHAR Otilde
ENCODING 213
SWIDTH 638 0
DWIDTH 12 0
BBX 11 18 1 0
BITMAP
0320
07E0
04C0
0000
0780
1FC0
3CE0
38E0
70E0
70E0
E0E0
E0E0
E1C0
E1C0
E380
E780
7F00
3C00
ENDCHAR

STARTCHAR Odieresis
ENCODING 214
SWIDTH 638 0
DWIDTH 12 0
BBX 11 17 1 0
BITMAP
0660
0660
0000
0780
1FC0
3CE0
38E0
70E0
70E0
E0E0
E0E0
E1C0
E1C0
E380
E780
7F00
3C00
ENDCHAR

STARTCHAR multiply
ENCODING 215
SWIDTH 479 0
DWIDTH 9 0
BBX 7 9 1 2
BITMAP
C6
EE
EE
7C
38
7C
EE
EE
C6
ENDCHAR

STARTCHAR Oslash
ENCODING 216
SWIDTH 638 0
DWIDTH 12 0
BBX 13 14 0 0
BITMAP
03D8
0FF0
1E70
1DF0
39F0
3B70
7370
7370
76E0
76E0
7DC0
7BC0
3F80
DE00
ENDCHAR

STARTCHAR Ugrave
ENCODING 217
SWIDTH 592 0
DWIDTH 11 0
BBX 12 18 0 0
BITMAP
0600
0300
0180
0000
1C70
1C70
1C70
38E0
38E0
38E0
39C0
71C0
71C0
7380
E380
E700
FF00
7E00
ENDCHAR

STARTCHAR Uacute
ENCODING 218
SWIDTH 592 0
DWIDTH 11 0
BBX 12 18 0 0
BITMAP
0060
00C0
0180
0000
1C70
1C70
1C70
38E0
38E0
38E0
39C0
71C0
71C0
7380
E380
E700
FF00
7E00
ENDCHAR

STARTCHAR Ucircumflex
ENCODING 219
SWIDTH 592 0
DWIDTH 11 0
BBX 12 18 0 0
BITMAP
0080
01C0
0360
0000
1C70
1C70
1C70
38E0
38E0
38E0
39C0
71C0
71C0
7380
E380
E700
FF00
7E00
ENDCHAR

STARTCHAR Udieresis
ENCODING 220
SWIDTH 592 0
DWIDTH 11 0
BBX 12 17 0 0
BITMAP
0660
0660
0000
1C70
1C70
1C70
38E0
38E0
38E0
39C0
71C0
71C0
7380
E380
E700
FF00
7E00
ENDCHAR

STARTCHAR Idotaccent
ENCODING 221
SWIDTH 228 0
DWIDTH 5 0
BBX 7 18 0 0
BITMAP
0E
0E
0E
00
1C
1C
1C
38
38
38
38
70
70
70
E0
E0
E0
E0
ENDCHAR

STARTCHAR Scedilla
ENCODING 222
SWIDTH 547 0
DWIDTH 10 0
BBX 9 18 1 -4
BITMAP
1E00
3F00
7380
7380
7000
7800
3C00
1E00
0F00
0700
E700
E700
7E00
3C00
1800
0C00
0C00
3800
ENDCHAR

STARTCHAR germandbls
ENCODING 223
SWIDTH 501 0
DWIDTH 10 0
BBX 10 14 0 0
BITMAP
0F80
1FC0
1DC0
39C0
3980
3B80
3B00
3B00
7380
73C0
71C0
F1C0
E780
E700
ENDCHAR

STARTCHAR agrave
ENCODING 224
SWIDTH 456 0
DWIDTH 9 0
BBX 9 14 0 0
BITMAP
1800
0C00
0600
0000
1F00
3F80
3380
0380
3F00
7F00
E700
E700
FF00
7B00
ENDCHAR

STARTCHAR aacute
ENCODING 225
SWIDTH 456 0
DWIDTH 9 0
BBX 9 14 0 0
BITMAP
0300
0600
0C00
0000
1F00
3F80
3380
0380
3F00
7F00
E700
E700
FF00
7B00
ENDCHAR

STARTCHAR acircumflex
ENCODING 226
SWIDTH 456 0
DWIDTH 9 0
BBX 9 14 0 0
BITMAP
0600
0F00
1980
0000
1F00
3F80
3380
0380
3F00
7F00
E700
E700
FF00
7B00
ENDCHAR

STARTCHAR atilde
ENCODING 227
SWIDTH 456 0
DWIDTH 9 0
BBX 10 14 0 0
BITMAP
0640
0FC0
0980
0000
1F00
3F80
3380
0380
3F00
7F00
E700
E700
FF00
7B00
ENDCHAR

STARTCHAR adieresis
ENCODING 228
SWIDTH 456 0
DWIDTH 9 0
BBX 9 13 0 0
BITMAP
0D80
0D80
0000
1F00
3F80
3380
0380
3F00
7F00
E700
E700
FF00
7B00
ENDCHAR

STARTCHAR aring
ENCODING 229
SWIDTH 456 0
DWIDTH 9 0
BBX 9 15 0 0
BITMAP
0700
0D80
0D80
0700
0000
1F00
3F80
3380
0380
3F00
7F00
E700
E700
FF00
7B00
ENDCHAR

STARTCHAR ae
ENCODING 230
SWIDTH 729 0
DWIDTH 14 0
BBX 14 10 0 0
BITMAP
1EF0
7FF8
679C
070C
3FFC
7FFC
CE00
CF38
FBF0
71E0
ENDCHAR

STARTCHAR ccedilla
ENCODING 231
SWIDTH 456 0
DWIDTH 9 0
BBX 9 14 0 -4
BITMAP
0F00
3F80
3980
7000
7000
E000
E300
E700
FE00
7C00
3000
3800
1800
7000
ENDCHAR

STARTCHAR egrave
ENCODING 232
SWIDTH 456 0
DWIDTH 9 0
BBX 9 14 0 0
BITMAP
3000
1800
0C00
0000
1E00
3F00
7380
7380
FF80
FF80
E000
E700
FE00
7C00
ENDCHAR

STARTCHAR eacute
ENCODING 233
SWIDTH 456 0
DWIDTH 9 0
BBX 9 14 0 0
BITMAP
0300
0600
0C00
0000
1E00
3F00
7380
7380
FF80
FF80
E000
E700
FE00
7C00
ENDCHAR

STARTCHAR ecircumflex
ENCODING 234
SWIDTH 456 0
DWIDTH 9 0
BBX 9 14 0 0
BITMAP
0600
0F00
1980
0000
1E00
3F00
7380
7380
FF80
FF80
E000
E700
FE00
7C00
ENDCHAR

STARTCHAR edieresis
ENCODING 235
SWIDTH 456 0
DWIDTH 9 0
BBX 9 14 0 0
BITMAP
1980
1980
0000
0000
1E00
3F00
7380
7380
FF80
FF80
E000
E700
FE00
7C00
ENDCHAR

STARTCHAR igrave
ENCODING 236
SWIDTH 228 0
DWIDTH 5 0
BBX 6 14 0 0
BITMAP
30
18
0C
00
38
38
38
70
70
70
60
E0
E0
E0
ENDCHAR

STARTCHAR iacute
ENCODING 237
SWIDTH 228 0
DWIDTH 5 0
BBX 7 14 0 0
BITMAP
06
0C
18
00
38
38
38
70
70
70
60
E0
E0
E0
ENDCHAR

STARTCHAR icircumflex
ENCODING 238
SWIDTH 228 0
DWIDTH 5 0
BBX 7 14 0 0
BITMAP
08
1C
36
00
38
38
38
70
70
70
60
E0
E0
E0
ENDCHAR

STARTCHAR idieresis
ENCODING 239
SWIDTH 228 0
DWIDTH 5 0
BBX 7 13 0 0
BITMAP
36
36
00
38
38
38
70
70
70
60
E0
E0
E0
ENDCHAR

STARTCHAR gbreve
ENCODING 240
SWIDTH 501 0
DWIDTH 10 0
BBX 12 18 -1 -4
BITMAP
0630
07F0
03E0
0000
0760
1FE0
1CE0
39C0
39C0
71C0
71C0
7380
7F80
3B80
0380
E700
7F00
3E00
ENDCHAR

STARTCHAR ntilde
ENCODING 241
SWIDTH 501 0
DWIDTH 10 0
BBX 10 14 0 0
BITMAP
0640
0FC0
0980
0000
3780
3FC0
39C0
71C0
7380
7380
7380
E700
E700
E700
ENDCHAR

STARTCHAR ograve
ENCODING 242
SWIDTH 501 0
DWIDTH 10 0
BBX 10 14 0 0
BITMAP
0C00
0600
0300
0000
0F80
3FC0
39C0
71C0
71C0
E380
E380
E700
FF00
7C00
ENDCHAR

STARTCHAR oacute
ENCODING 243
SWIDTH 501 0
DWIDTH 10 0
BBX 10 14 0 0
BITMAP
0180
0300
0600
0000
0F80
3FC0
39C0
71C0
71C0
E380
E380
E700
FF00
7C00
ENDCHAR

STARTCHAR ocircumflex
ENCODING 244
SWIDTH 501 0
DWIDTH 10 0
BBX 11 14 0 0
BITMAP
0180
03C0
0660
0000
0F80
3FC0
39C0
71C0
71C0
E380
E380
E700
FF00
7C00
ENDCHAR

STARTCHAR otilde
ENCODING 245
SWIDTH 501 0
DWIDTH 10 0
BBX 10 14 0 0
BITMAP
0640
0FC0
0980
0000
0F80
3FC0
39C0
71C0
71C0
E380
E380
E700
FF00
7C00
ENDCHAR

STARTCHAR odieresis
ENCODING 246
SWIDTH 501 0
DWIDTH 10 0
BBX 10 13 0 0
BITMAP
0CC0
0CC0
0000
0F80
3FC0
39C0
71C0
71C0
E380
E380
E700
FF00
7C00
ENDCHAR

STARTCHAR divide
ENCODING 247
SWIDTH 479 0
DWIDTH 9 0
BBX 8 10 1 2
BITMAP
18
18
18
00
FF
FF
00
18
18
18
ENDCHAR

STARTCHAR oslash
ENCODING 248
SWIDTH 501 0
DWIDTH 10 0
BBX 10 10 0 0
BITMAP
0FC0
3FC0
3BC0
73C0
75C0
EB80
F380
F700
FF00
FC00
ENDCHAR

STARTCHAR ugrave
ENCODING 249
SWIDTH 501 0
DWIDTH 10 0
BBX 10 14 0 0
BITMAP
0C00
0600
0300
0000
39C0
39C0
39C0
7380
7380
7380
E380
E700
FF00
7B00
ENDCHAR

STARTCHAR uacute
ENCODING 250
SWIDTH 501 0
DWIDTH 10 0
BBX 10 14 0 0
BITMAP
0180
0300
0600
0000
39C0
39C0
39C0
7380
7380
7380
E380
E700
FF00
7B00
ENDCHAR

STARTCHAR ucircumflex
ENCODING 251
SWIDTH 501 0
DWIDTH 10 0
BBX 10 14 0 0
BITMAP
0300
0780
0CC0
0000
39C0
39C0
39C0
7380
7380
7380
E380
E700
FF00
7B00
ENDCHAR

STARTCHAR udieresis
ENCODING 252
SWIDTH 501 0
DWIDTH 10 0
BBX 10 13 0 0
BITMAP
0CC0
0CC0
0000
39C0
39C0
39C0
7380
7380
7380
E380
E700
FF00
7B00
ENDCHAR

STARTCHAR dotlessi
ENCODING 253
SWIDTH 228 0
DWIDTH 5 0
BBX 5 10 0 0
BITMAP
38
38
38
70
70
70
60
E0
E0
E0
ENDCHAR

STARTCHAR scedilla
ENCODING 254
SWIDTH 456 0
DWIDTH 8 0
BBX 8 14 0 -4
BITMAP
1E
3F
73
70
7C
3E
0E
CE
FC
78
30
38
18
70
ENDCHAR

STARTCHAR ydieresis
ENCODING 255
SWIDTH 456 0
DWIDTH 9 0
BBX 10 17 0 -4
BITMAP
1980
1980
0000
71C0
71C0
7380
7380
3700
3700
3F00
3E00
1E00
1C00
1C00
3800
F800
F000
ENDCHAR
ENDFONT
